<svg width="46" height="63" viewBox="0 0 46 63" version="1.1" xmlns="http://www.w3.org/2000/svg" xmlns:xlink="http://www.w3.org/1999/xlink">
<title>MB logo</title>
<desc>Created using Figma</desc>
<g id="Canvas" transform="translate(-9857 231)">
<g id="MB logo">
<g id="Group 6">
<mask id="mask0_outline" mask-type="alpha">
<g id="Clip 5">
<use xlink:href="#path0_fill" transform="translate(9857.69 -218.049)" fill="#FFFFFF"/>
</g>
</mask>
<g id="Fill 4" mask="url(#mask0_outline)">
<use xlink:href="#path1_fill" transform="translate(9857.52 -218.343)" fill="#FFFFFF"/>
</g>
</g>
<g id="Group 9">
<mask id="mask1_outline" mask-type="alpha">
<g id="Clip 8">
<use xlink:href="#path1_fill" transform="translate(9857.52 -218.343)" fill="#FFFFFF"/>
</g>
</mask>
<g id="Stroke 7" mask="url(#mask1_outline)">
<use xlink:href="#path2_stroke" transform="translate(9857.52 -218.343)" fill="#FFFFFF"/>
</g>
</g>
<g id="Stroke 10">
<use xlink:href="#path3_stroke" transform="translate(9867.94 -219.659)" fill="#FFFFFF"/>
</g>
<g id="Group 13">
<mask id="mask2_outline" mask-type="alpha">
<g id="Clip 12">
<use xlink:href="#path4_fill" transform="translate(9874.1 -208.723)" fill="#FFFFFF"/>
</g>
</mask>
<g id="Fill 11" mask="url(#mask2_outline)">
<use xlink:href="#path5_fill" transform="translate(9874.08 -208.763)" fill="#FFFFFF"/>
</g>
</g>
<g id="Stroke 14">
<use xlink:href="#path6_stroke" transform="translate(9858.06 -229.392)" fill="#FFFFFF"/>
</g>
</g>
</g>
<defs>
<path id="path0_fill" fill-rule="evenodd" d="M 0.44408 0L 1.00202 0.373784L 0.836623 42.6185L 0.419623 41.8154L 9.48134 48.2069L 9.47861 48.907L 9.05714 49.1189L 8.47936 48.7114L 8.64562 6.16048L 9.08262 6.97731L 0 0.893485L 0.00258695 0.228779L 0.44408 4.89485e-14L 0.44408 0Z"/>
<path id="path1_fill" fill-rule="evenodd" d="M 0.167 0L 9.808 6.45883L 9.639 49.7092L 0 42.9099L 0.167 0Z"/>
<path id="path2_stroke" d="M 9.808 6.45883L 11.808 6.46664L 11.8122 5.39416L 10.9212 4.79723L 9.808 6.45883ZM 9.639 49.7092L 8.48616 51.3435L 11.624 53.557L 11.639 49.7171L 9.639 49.7092ZM 0 42.9099L -1.99998 42.9021L -2.00404 43.9438L -1.15284 44.5442L 0 42.9099ZM -0.946155 1.66159L 8.69484 8.12042L 10.9212 4.79723L 1.28016 -1.66159L -0.946155 1.66159ZM 7.80801 6.45101L 7.63902 49.7014L 11.639 49.7171L 11.808 6.46664L 7.80801 6.45101ZM 10.7918 48.0749L 1.15284 41.2756L -1.15284 44.5442L 8.48616 51.3435L 10.7918 48.0749ZM 1.99998 42.9177L 2.16698 0.00778369L -1.83298 -0.00778369L -1.99998 42.9021L 1.99998 42.9177Z"/>
<path id="path3_stroke" d="M 0 8.3856L -0.24319 7.41562L -1 7.60537L -1 8.3856L 0 8.3856ZM 33.4465 0L 34.4465 0L 34.4465 -1.28167L 33.2033 -0.969979L 33.4465 0ZM 33.4465 41.9563L 33.6726 42.9304L 34.4465 42.7507L 34.4465 41.9563L 33.4465 41.9563ZM 0 49.7213L -1 49.7213L -1 50.9801L 0.226147 50.6954L 0 49.7213ZM 0.24319 9.35558L 33.6897 0.969979L 33.2033 -0.969979L -0.24319 7.41562L 0.24319 9.35558ZM 32.4465 0L 32.4465 41.9563L 34.4465 41.9563L 34.4465 0L 32.4465 0ZM 33.2204 40.9822L -0.226147 48.7472L 0.226147 50.6954L 33.6726 42.9304L 33.2204 40.9822ZM 1 49.7213L 1 8.3856L -1 8.3856L -1 49.7213L 1 49.7213Z"/>
<path id="path4_fill" fill-rule="evenodd" d="M 10.763 17.9849L 14.756 1.91216L 21.496 0L 21.496 21.9027L 17.321 23.0866L 17.321 5.84571L 12.904 24.3394L 8.577 25.5666L 4.175 9.57457L 4.175 26.8155L 0 27.9994L 0 6.09667L 6.725 4.18943L 10.763 17.9849Z"/>
<path id="path5_fill" fill-rule="evenodd" d="M 0 0L 21.6 0L 21.6 28.1067L 0 28.1067L 0 0Z"/>
<path id="path6_stroke" d="M 0 11.6619L -0.363254 10.7302L 0.227874 12.6356L 0 11.6619ZM 29.911 0L 30.911 0L 30.911 -1.4632L 29.5477 -0.93169L 29.911 0ZM 29.911 4.66181L 30.1389 5.6355L 30.911 5.4548L 30.911 4.66181L 29.911 4.66181ZM 2.13867 13.8171L 1.83217 12.8653L 2.32032 14.8005L 2.13867 13.8171ZM 34.4287 3.41985L 35.4287 3.41985L 35.4287 2.04729L 34.1222 2.46797L 34.4287 3.41985ZM 34.4287 7.85235L 34.6103 8.83572L 35.4287 8.68455L 35.4287 7.85235L 34.4287 7.85235ZM 5.61426 15.8376L 5.34538 14.8744L 5.76176 16.8266L 5.61426 15.8376ZM 38.7873 6.57692L 39.7873 6.57692L 39.7873 5.25952L 38.5184 5.61375L 38.7873 6.57692ZM 38.7873 10.8903L 38.9348 11.8794L 39.7873 11.7523L 39.7873 10.8903L 38.7873 10.8903ZM 0.363254 12.5936L 30.2743 0.93169L 29.5477 -0.93169L -0.363254 10.7302L 0.363254 12.5936ZM 28.911 0L 28.911 4.66181L 30.911 4.66181L 30.911 0L 28.911 0ZM 0.227874 12.6356L 30.1389 5.6355L 29.6831 3.68812L -0.227874 10.6882L 0.227874 12.6356ZM 2.44517 14.769L 34.7352 4.37172L 34.1222 2.46797L 1.83217 12.8653L 2.44517 14.769ZM 33.4287 3.41985L 33.4287 7.85235L 35.4287 7.85235L 35.4287 3.41985L 33.4287 3.41985ZM 2.32032 14.8005L 34.6103 8.83572L 34.247 6.86899L 1.95702 12.8338L 2.32032 14.8005ZM 5.88314 16.8007L 39.0561 7.54009L 38.5184 5.61375L 5.34538 14.8744L 5.88314 16.8007ZM 37.7873 6.57692L 37.7873 10.8903L 39.7873 10.8903L 39.7873 6.57692L 37.7873 6.57692ZM 5.76176 16.8266L 38.9348 11.8794L 38.6398 9.90129L 5.46676 14.8485L 5.76176 16.8266Z"/>
</defs>
</svg>
