<?xml version="1.0" standalone="no"?>
   <!DOCTYPE svg PUBLIC "-//W3C//DTD SVG 1.1//EN" 
   "http://www.w3.org/Graphics/SVG/1.1/DTD/svg11.dtd"><svg id="svg" version="1.1" width="3522" height="1179" xmlns="http://www.w3.org/2000/svg"><path d="M2496.000 199.288 C 2446.353 207.092,2387.528 223.236,2317.500 248.276 C 2204.022 288.853,2000.089 404.783,1869.000 503.235 C 1847.901 519.081,1793.501 573.113,1784.293 587.369 C 1779.721 594.447,1774.029 604.910,1771.643 610.619 C 1769.258 616.329,1766.889 621.000,1766.378 621.000 C 1765.868 621.000,1756.343 612.287,1745.211 601.637 C 1699.275 557.690,1584.787 486.996,1468.500 430.774 C 1362.679 379.611,1311.917 357.421,1269.260 343.679 C 1250.428 337.611,1231.191 330.667,1226.510 328.247 C 1221.830 325.826,1218.000 324.480,1218.000 325.254 C 1218.000 326.029,1211.588 323.951,1203.750 320.637 C 1195.913 317.324,1186.800 313.514,1183.500 312.172 C 1152.351 299.506,1008.973 261.425,957.644 252.185 C 899.167 241.659,851.277 249.872,757.500 286.508 C 726.150 298.756,670.214 319.016,633.197 331.530 C 566.942 353.930,508.101 379.621,509.591 385.500 C 510.009 387.150,512.635 388.172,515.426 387.772 C 518.217 387.372,538.725 385.688,561.000 384.030 C 583.275 382.373,605.550 380.257,610.500 379.329 C 620.467 377.461,581.562 399.827,523.500 429.345 C 503.700 439.411,485.475 449.335,483.000 451.399 C 480.525 453.462,474.053 456.642,468.617 458.465 C 457.968 462.037,441.000 473.104,441.000 476.477 C 441.000 477.614,452.138 478.148,465.750 477.663 L 490.500 476.782 478.500 484.376 C 471.900 488.552,465.431 491.976,464.123 491.985 C 462.816 491.993,460.116 493.330,458.123 494.955 C 456.131 496.580,450.113 501.425,444.750 505.721 C 433.612 514.645,431.646 525.000,441.090 525.000 C 447.090 525.000,447.082 525.132,440.553 533.963 C 432.459 544.911,434.545 547.723,447.597 543.456 L 457.500 540.219 447.022 548.360 C 429.320 562.113,405.000 587.622,405.000 592.436 C 405.000 595.847,408.420 597.000,418.535 597.000 L 432.069 597.000 418.580 613.561 C 404.269 631.131,396.000 645.108,396.000 651.726 C 396.000 653.940,389.925 661.713,382.500 669.000 C 375.075 676.287,369.000 683.487,369.000 685.000 C 369.000 686.512,373.388 686.930,378.750 685.928 C 386.813 684.421,387.697 684.746,383.862 687.803 C 378.437 692.128,369.000 705.328,369.000 708.593 C 369.000 709.834,373.388 710.028,378.750 709.024 L 388.500 707.198 378.051 716.740 C 369.459 724.587,368.393 726.782,372.051 729.095 C 374.498 730.642,378.353 731.929,380.617 731.954 C 383.937 731.991,384.011 732.872,381.000 736.500 C 378.946 738.975,374.946 741.000,372.112 741.000 C 369.277 741.000,358.780 745.087,348.784 750.082 C 336.217 756.362,330.061 761.348,328.833 766.243 C 327.538 771.402,324.235 773.851,316.652 775.274 C 304.730 777.510,297.619 786.070,286.160 811.981 C 281.959 821.480,274.384 833.965,269.328 839.724 C 264.271 845.483,257.678 855.748,254.676 862.534 C 251.674 869.320,246.282 877.489,242.695 880.687 C 233.672 888.728,227.311 905.034,229.432 914.689 C 230.992 921.792,229.848 923.371,219.852 927.905 C 200.462 936.702,189.363 960.521,198.777 973.134 C 202.577 978.227,207.139 978.730,246.241 978.367 C 298.264 977.884,542.774 967.565,789.000 955.461 C 901.941 949.908,1041.192 943.118,1159.500 937.393 C 1300.879 930.553,1419.980 924.497,1519.826 919.072 L 1610.151 914.165 1626.326 926.245 C 1677.176 964.222,1758.867 982.526,1824.000 970.536 C 1826.475 970.080,1834.575 968.737,1842.000 967.551 C 1861.465 964.441,1892.727 951.710,1905.574 941.662 L 1916.648 933.000 1965.574 932.979 C 1992.483 932.967,2075.925 934.949,2151.000 937.384 C 2317.342 942.778,2536.768 949.411,2751.000 955.522 C 2839.275 958.039,2950.650 961.494,2998.500 963.199 C 3046.350 964.903,3139.838 967.112,3206.250 968.107 C 3339.172 970.099,3329.757 971.467,3324.027 951.000 C 3322.182 944.410,3311.665 930.445,3295.786 913.500 C 3281.870 898.650,3267.338 883.125,3263.492 879.000 C 3259.647 874.875,3254.997 866.579,3253.160 860.565 C 3249.233 847.710,3222.596 804.000,3218.689 804.000 C 3217.210 804.000,3216.000 801.864,3216.000 799.253 C 3216.000 792.992,3189.815 766.874,3168.261 751.635 C 3158.821 744.961,3145.226 734.454,3138.051 728.286 C 3125.269 717.299,3125.116 716.950,3130.486 711.016 C 3133.500 707.685,3137.437 705.128,3139.233 705.335 C 3157.235 707.407,3157.082 699.873,3138.750 681.436 C 3122.389 664.981,3097.749 645.000,3093.818 645.000 C 3092.349 645.000,3088.526 642.999,3085.323 640.553 C 3079.918 636.425,3080.254 636.240,3090.000 637.976 C 3095.775 639.004,3102.817 641.028,3105.649 642.474 C 3112.998 646.227,3135.000 642.179,3135.000 637.074 C 3135.000 630.722,3117.349 615.929,3099.470 607.298 C 3090.654 603.042,3083.906 599.094,3084.475 598.525 C 3085.043 597.957,3091.917 598.958,3099.750 600.750 C 3107.583 602.542,3114.958 603.042,3116.139 601.861 C 3120.797 597.203,3110.567 589.116,3072.385 567.272 L 3032.581 544.500 3065.790 543.652 C 3084.056 543.185,3099.000 541.994,3099.000 541.004 C 3099.000 540.014,3096.233 536.804,3092.851 533.871 C 3089.013 530.542,3087.894 527.802,3089.874 526.578 C 3093.660 524.238,3090.927 521.325,3072.159 507.691 L 3058.818 498.000 3074.409 498.000 C 3090.520 498.000,3095.083 494.011,3083.250 490.271 C 3079.538 489.097,3072.450 485.162,3067.500 481.527 C 3062.550 477.892,3040.950 465.748,3019.500 454.541 C 2998.050 443.334,2960.925 423.052,2937.000 409.470 C 2913.075 395.888,2878.747 376.607,2860.716 366.624 C 2828.644 348.866,2828.155 348.438,2838.216 346.913 C 2865.085 342.840,2914.941 340.655,2947.500 342.124 C 2967.300 343.017,2983.965 343.452,2984.533 343.091 C 2987.625 341.123,2957.198 325.504,2933.190 316.734 C 2917.960 311.172,2898.750 303.663,2890.500 300.048 C 2827.914 272.625,2703.395 230.220,2652.000 218.827 C 2646.225 217.547,2625.300 212.260,2605.500 207.079 C 2563.119 195.988,2531.366 193.729,2496.000 199.288 M2592.000 211.473 C 2719.757 242.160,2764.544 256.794,2913.000 316.357 C 2968.909 338.789,2969.634 339.293,2943.000 337.226 C 2919.880 335.432,2823.796 339.851,2770.500 345.159 C 2676.504 354.521,2508.322 391.635,2382.000 430.892 C 2226.244 479.297,2124.085 519.129,2051.272 559.844 C 2012.400 581.581,1929.232 633.202,1909.500 647.839 C 1901.250 653.959,1876.088 672.061,1853.584 688.064 C 1812.067 717.589,1801.200 726.780,1781.520 749.015 L 1770.540 761.420 1769.233 745.960 C 1768.514 737.457,1768.411 707.888,1769.005 680.250 C 1770.540 608.765,1771.408 606.776,1823.688 555.000 C 1871.024 508.120,1925.398 467.935,2029.500 402.895 C 2103.046 356.945,2208.496 301.007,2278.500 270.807 C 2350.507 239.744,2457.112 209.555,2511.000 204.967 C 2521.725 204.054,2531.147 202.703,2531.937 201.966 C 2534.246 199.813,2561.254 204.087,2592.000 211.473 M958.656 262.577 C 1086.786 292.961,1143.369 309.717,1260.000 351.813 C 1421.297 410.030,1661.696 538.480,1743.637 610.230 L 1765.780 629.618 1763.001 656.059 C 1761.473 670.602,1760.060 698.360,1759.861 717.744 C 1759.662 737.128,1759.013 752.990,1758.419 752.994 C 1757.824 752.997,1746.349 742.639,1732.919 729.975 C 1648.866 650.721,1524.254 582.220,1332.000 509.585 C 1314.675 503.039,1294.392 495.149,1286.928 492.050 C 1265.753 483.261,1158.742 451.924,1104.000 438.482 C 822.208 369.288,745.948 360.792,547.500 376.482 L 529.500 377.905 546.000 370.229 C 555.075 366.007,596.250 351.088,637.500 337.075 C 678.750 323.062,734.114 303.058,760.532 292.621 C 800.462 276.846,843.628 263.378,874.500 257.062 C 887.152 254.474,938.739 257.854,958.656 262.577 M2838.066 362.456 C 2880.762 390.151,2974.668 444.975,3014.968 465.736 C 3059.295 488.571,3058.926 489.013,3004.500 478.270 C 2947.140 466.947,2853.052 458.926,2775.000 458.704 C 2696.486 458.481,2534.624 468.831,2511.000 475.585 C 2508.525 476.293,2490.975 479.014,2472.000 481.633 C 2425.893 487.995,2336.864 505.757,2314.500 513.055 C 2304.600 516.285,2272.276 525.048,2242.669 532.529 C 2177.076 549.100,2099.932 576.008,2044.500 601.651 C 1921.149 658.711,1857.380 693.691,1818.000 725.897 C 1797.255 742.862,1796.787 743.094,1812.000 728.865 C 1844.796 698.193,1994.294 599.688,2070.000 558.869 C 2113.974 535.159,2219.384 492.153,2287.500 470.131 C 2471.712 410.575,2628.236 371.803,2749.500 355.688 C 2818.989 346.454,2812.650 345.970,2838.066 362.456 M777.000 381.251 C 838.098 387.700,881.861 395.089,964.500 412.906 C 1106.647 443.554,1227.337 476.754,1305.826 506.802 C 1477.991 572.711,1559.492 611.901,1644.517 669.661 C 1685.936 697.798,1751.523 749.361,1751.832 754.029 C 1751.925 755.421,1745.588 751.270,1737.750 744.805 C 1695.411 709.884,1593.255 653.906,1496.236 612.464 C 1444.368 590.309,1357.269 558.754,1313.391 546.223 C 1236.653 524.307,1103.632 497.609,1006.500 484.630 C 986.700 481.984,957.675 477.846,942.000 475.434 C 877.637 465.530,811.693 462.000,691.114 462.005 C 625.326 462.008,549.442 463.462,522.482 465.237 C 495.523 467.012,472.897 467.897,472.203 467.203 C 471.509 466.509,489.174 456.275,511.459 444.459 C 533.743 432.644,561.328 416.982,572.758 409.655 C 603.588 389.894,623.655 380.451,640.470 377.794 C 658.206 374.991,736.479 376.973,777.000 381.251 M834.000 471.238 C 875.379 474.143,950.139 483.252,1044.000 496.826 C 1114.942 507.085,1234.907 531.907,1304.232 550.672 C 1379.142 570.948,1503.153 618.746,1583.329 658.246 C 1595.335 664.161,1605.841 669.000,1606.675 669.000 C 1607.509 669.000,1625.134 678.483,1645.841 690.074 C 1685.556 712.304,1721.320 735.387,1741.809 752.012 C 1748.579 757.505,1755.666 762.000,1757.559 762.000 C 1759.452 762.000,1761.000 764.700,1761.000 768.000 C 1761.000 772.942,1759.015 773.992,1749.750 773.954 C 1741.638 773.921,1739.731 773.130,1742.913 771.117 C 1745.340 769.582,1746.690 767.893,1745.913 767.364 C 1745.136 766.835,1727.625 758.051,1707.000 747.844 C 1662.426 725.784,1601.274 701.518,1541.750 682.270 C 1517.963 674.578,1496.475 667.567,1494.000 666.691 C 1491.525 665.815,1487.242 664.651,1484.483 664.104 C 1476.782 662.576,1433.186 649.574,1396.500 637.862 C 1331.419 617.086,1198.844 588.277,1131.000 580.168 C 1123.575 579.280,1106.025 576.711,1092.000 574.458 C 1077.975 572.205,1050.300 568.182,1030.500 565.518 C 1010.700 562.855,990.450 560.091,985.500 559.377 C 980.550 558.663,941.743 556.494,899.262 554.556 C 808.264 550.407,702.070 553.958,616.500 564.014 C 603.300 565.565,584.400 567.562,574.500 568.452 C 556.517 570.067,504.368 576.144,449.344 583.035 L 420.189 586.686 426.844 579.512 C 433.506 572.332,468.886 545.022,483.000 536.165 C 494.098 529.201,541.653 521.583,591.000 518.865 C 614.925 517.548,660.150 514.969,691.500 513.134 C 799.557 506.810,963.510 512.598,1063.500 526.265 C 1112.931 533.021,1298.841 570.402,1349.237 583.718 C 1391.350 594.845,1464.923 619.168,1513.222 637.931 C 1565.382 658.193,1667.908 711.064,1711.500 740.179 C 1729.650 752.301,1739.775 758.025,1734.000 752.899 C 1705.992 728.039,1599.182 667.277,1534.500 639.408 C 1479.265 615.610,1400.749 588.987,1339.500 573.289 C 1281.805 558.502,1116.238 524.622,1075.500 519.267 C 961.983 504.345,871.035 499.525,703.500 499.551 C 579.772 499.571,534.698 502.098,468.000 512.758 C 458.925 514.208,451.135 515.054,450.690 514.637 C 449.478 513.504,490.458 486.385,496.915 484.046 C 499.987 482.934,506.016 479.591,510.314 476.618 C 519.531 470.242,533.783 469.591,685.500 468.624 C 741.600 468.266,808.425 469.443,834.000 471.238 M2835.000 471.032 C 2904.918 474.056,2953.901 479.015,3003.000 488.042 C 3021.881 491.513,3033.756 495.839,3048.750 504.709 C 3059.888 511.298,3069.000 517.029,3069.000 517.444 C 3069.000 518.411,3040.863 516.709,2997.000 513.088 C 2926.211 507.244,2759.590 506.097,2695.500 511.012 C 2662.500 513.543,2614.575 516.444,2589.000 517.459 C 2414.149 524.394,2239.750 558.473,2052.864 622.224 C 1994.401 642.167,1923.065 674.729,1872.000 704.781 C 1818.384 736.335,1814.960 738.646,1793.688 757.632 L 1774.500 774.758 1795.777 753.812 C 1829.086 721.021,1873.747 693.770,1969.555 647.776 C 2113.731 578.562,2150.299 565.865,2344.500 517.589 C 2375.826 509.802,2446.094 496.109,2476.500 491.867 C 2488.050 490.255,2515.725 486.361,2538.000 483.213 C 2575.784 477.872,2646.219 473.027,2751.000 468.559 C 2758.425 468.242,2796.225 469.355,2835.000 471.032 M642.000 510.107 C 631.275 511.312,611.025 512.464,597.000 512.666 C 566.997 513.097,493.224 523.262,474.216 529.582 C 454.711 536.069,450.185 535.482,458.165 527.502 C 465.654 520.013,501.581 514.377,562.500 511.135 C 582.300 510.082,599.063 508.720,599.750 508.110 C 600.438 507.499,614.613 507.206,631.250 507.457 C 660.807 507.904,661.053 507.965,642.000 510.107 M2988.000 520.479 C 2992.125 520.954,3011.226 522.320,3030.446 523.513 C 3056.661 525.140,3067.502 527.065,3073.835 531.220 L 3082.278 536.758 3059.889 535.303 C 3047.575 534.503,3019.275 532.543,2997.000 530.946 C 2938.608 526.762,2787.753 525.146,2730.000 528.086 C 2702.775 529.472,2637.975 532.059,2586.000 533.835 C 2534.025 535.611,2481.375 538.357,2469.000 539.938 C 2456.625 541.519,2439.075 543.524,2430.000 544.395 C 2420.925 545.266,2405.400 546.847,2395.500 547.909 C 2385.600 548.971,2378.175 549.117,2379.000 548.233 C 2381.336 545.731,2494.173 531.430,2526.000 529.602 C 2541.675 528.702,2575.425 526.661,2601.000 525.067 C 2626.575 523.472,2666.400 521.288,2689.500 520.213 C 2712.600 519.137,2732.175 517.608,2733.000 516.814 C 2734.488 515.381,2973.603 518.818,2988.000 520.479 M3016.099 544.999 C 3037.206 555.615,3086.802 585.252,3088.758 588.418 C 3091.159 592.303,3076.301 591.536,3049.500 586.393 C 3011.230 579.049,2969.614 573.767,2857.500 562.023 C 2757.713 551.570,2747.734 551.047,2656.500 551.489 C 2567.814 551.919,2448.877 556.185,2424.000 559.829 C 2418.225 560.674,2404.725 562.717,2394.000 564.369 C 2383.275 566.020,2369.100 568.059,2362.500 568.900 C 2311.060 575.457,2254.432 586.961,2155.500 610.950 C 2067.492 632.290,1967.100 669.420,1907.199 702.785 C 1885.758 714.728,1854.642 732.065,1838.053 741.310 C 1821.464 750.556,1802.741 762.444,1796.446 767.729 C 1779.209 782.201,1782.697 773.627,1800.593 757.537 C 1840.901 721.296,1961.496 661.239,2059.500 628.599 C 2133.193 604.056,2235.035 575.991,2267.779 571.204 C 2285.225 568.653,2312.325 564.639,2328.000 562.283 C 2343.675 559.927,2377.425 556.642,2403.000 554.983 C 2428.575 553.324,2459.726 550.592,2472.224 548.913 C 2484.722 547.233,2525.222 545.153,2562.224 544.292 C 2678.090 541.595,2746.451 539.303,2747.810 538.068 C 2748.531 537.414,2805.726 536.963,2874.910 537.066 L 3000.699 537.253 3016.099 544.999 M930.000 562.553 C 973.870 564.282,1035.571 570.535,1078.500 577.602 C 1093.350 580.047,1123.725 584.866,1146.000 588.310 C 1168.275 591.755,1216.200 600.517,1252.500 607.781 C 1288.800 615.046,1319.738 620.992,1321.250 620.995 C 1322.763 620.998,1323.243 621.757,1322.318 622.682 C 1321.393 623.607,1299.231 620.220,1273.068 615.155 C 1246.906 610.091,1216.050 604.662,1204.500 603.093 C 1192.950 601.523,1165.950 597.604,1144.500 594.383 C 1085.016 585.452,1069.375 584.360,990.000 583.596 C 916.771 582.892,869.535 584.748,804.000 590.903 C 785.025 592.685,759.375 594.820,747.000 595.647 C 734.625 596.474,714.375 598.423,702.000 599.978 C 689.625 601.533,671.400 603.632,661.500 604.643 C 641.658 606.668,599.654 612.513,553.500 619.673 C 537.000 622.233,510.000 626.405,493.500 628.944 C 477.000 631.483,456.075 635.327,447.000 637.484 C 437.925 639.642,425.290 642.305,418.922 643.401 L 407.343 645.395 417.283 631.555 C 428.460 615.990,457.016 588.000,461.717 588.000 C 463.409 588.000,479.353 586.082,497.147 583.738 C 514.941 581.394,544.350 577.939,562.500 576.060 C 580.650 574.181,619.125 570.205,648.000 567.226 C 676.875 564.246,727.462 561.551,760.416 561.238 C 793.370 560.925,821.044 559.956,821.915 559.085 C 822.786 558.214,838.349 558.279,856.499 559.229 C 874.650 560.179,907.725 561.675,930.000 562.553 M2775.000 562.731 C 2791.337 564.087,2856.371 570.426,2908.500 575.743 C 2923.350 577.258,2947.650 579.267,2962.500 580.208 C 2996.885 582.388,3060.501 592.451,3069.150 597.080 C 3072.794 599.030,3086.063 608.072,3098.638 617.172 L 3121.500 633.718 3106.500 632.059 C 3098.250 631.146,3081.375 628.424,3069.000 626.009 C 2986.860 609.983,2901.113 597.927,2851.500 595.429 C 2831.700 594.432,2802.194 592.353,2785.932 590.808 C 2747.626 587.170,2554.757 587.258,2500.500 590.938 C 2477.400 592.505,2441.625 594.636,2421.000 595.675 C 2320.836 600.720,2177.073 624.570,2088.000 650.920 C 2072.325 655.557,2046.000 663.056,2029.500 667.584 C 1982.077 680.600,1951.508 692.208,1909.533 713.140 C 1860.643 737.520,1863.747 733.352,1914.000 707.143 C 1992.167 666.376,2100.139 629.944,2218.500 604.398 C 2231.700 601.549,2249.250 597.438,2257.500 595.262 C 2280.362 589.234,2317.966 582.152,2343.000 579.161 C 2355.375 577.682,2387.100 573.665,2413.500 570.233 C 2486.943 560.685,2697.671 556.312,2775.000 562.731 M903.000 594.009 C 853.585 601.155,758.923 611.745,727.500 613.642 C 712.650 614.539,683.625 617.335,663.000 619.856 C 549.003 633.788,511.766 640.824,436.461 662.659 C 409.258 670.548,387.000 676.642,387.000 676.202 C 387.000 675.762,393.043 670.450,400.429 664.398 C 415.207 652.288,419.776 650.940,483.000 640.045 C 625.655 615.462,690.564 607.524,837.000 596.752 C 862.575 594.871,883.855 593.015,884.288 592.628 C 884.722 592.240,892.822 591.856,902.288 591.773 L 919.500 591.623 903.000 594.009 M1098.000 596.541 C 1108.725 598.243,1130.325 601.163,1146.000 603.030 C 1175.150 606.501,1254.937 619.271,1276.500 623.916 C 1283.100 625.338,1299.975 628.823,1314.000 631.662 C 1353.717 639.700,1454.971 664.307,1503.000 677.592 C 1567.004 695.296,1687.714 738.831,1696.497 747.377 C 1698.145 748.981,1690.045 746.681,1678.497 742.266 C 1595.912 710.692,1522.478 692.272,1350.000 659.865 C 1322.775 654.750,1290.375 648.604,1278.000 646.206 C 1151.085 621.619,1073.191 615.698,966.000 622.488 C 925.575 625.049,860.100 628.993,820.500 631.254 C 734.346 636.172,678.572 640.871,636.000 646.800 C 618.675 649.213,589.650 653.248,571.500 655.767 C 490.536 667.005,464.755 672.342,427.359 685.608 C 406.301 693.078,387.832 698.777,386.318 698.273 C 384.803 697.768,388.902 693.065,395.426 687.822 C 417.410 670.155,514.543 645.442,610.500 633.102 C 673.462 625.005,675.381 624.800,723.464 621.018 C 747.134 619.157,792.825 614.193,825.000 609.988 C 907.801 599.167,935.113 597.496,1006.319 598.900 C 1040.869 599.581,1068.096 599.094,1066.823 597.819 C 1065.550 596.544,1035.256 594.668,999.504 593.652 L 934.500 591.804 1006.500 592.625 C 1046.100 593.077,1087.275 594.840,1098.000 596.541 M1074.807 599.079 C 1077.726 599.840,1081.776 599.790,1083.807 598.968 C 1085.838 598.146,1083.450 597.524,1078.500 597.585 C 1073.550 597.646,1071.888 598.318,1074.807 599.079 M2886.000 607.110 C 2942.521 613.061,2995.007 619.659,3027.537 624.903 C 3055.338 629.385,3064.048 633.787,3104.354 663.721 C 3121.313 676.317,3123.076 678.404,3115.500 676.915 C 3094.903 672.869,3031.265 664.117,3003.000 661.443 C 2992.275 660.428,2957.850 656.336,2926.500 652.350 C 2852.126 642.894,2851.323 642.807,2790.000 637.489 C 2761.125 634.985,2721.300 631.264,2701.500 629.218 C 2649.036 623.799,2455.727 625.031,2383.500 631.245 C 2352.150 633.942,2307.600 637.583,2284.500 639.337 C 2261.400 641.090,2222.925 646.337,2199.000 650.997 C 2175.075 655.657,2141.325 661.744,2124.000 664.523 C 2047.616 676.779,1927.186 713.739,1880.853 739.145 C 1855.453 753.073,1828.938 765.062,1833.397 760.603 C 1836.657 757.343,1875.858 736.560,1912.500 718.665 C 1933.950 708.190,1967.025 694.849,1986.000 689.019 C 2060.053 666.265,2169.466 638.981,2217.000 631.416 C 2234.325 628.658,2258.625 624.531,2271.000 622.244 C 2307.884 615.428,2361.954 609.568,2422.500 605.824 C 2453.850 603.886,2480.175 601.654,2481.000 600.865 C 2481.825 600.076,2563.500 600.128,2662.500 600.981 C 2793.278 602.107,2854.395 603.783,2886.000 607.110 M1120.500 630.022 C 1185.134 637.139,1276.437 653.076,1440.000 685.791 C 1491.251 696.042,1505.659 699.247,1573.500 715.487 C 1607.997 723.745,1735.152 764.848,1732.965 767.035 C 1732.272 767.728,1702.859 759.625,1667.602 749.028 C 1632.346 738.430,1587.300 726.125,1567.500 721.683 C 1547.700 717.241,1520.025 711.045,1506.000 707.915 C 1475.895 701.196,1396.907 688.835,1354.500 684.206 C 1288.763 677.032,1229.012 674.599,1162.500 676.390 C 922.365 682.856,754.032 690.154,747.169 694.396 C 744.579 695.996,664.340 698.866,577.500 700.463 C 536.250 701.222,486.300 703.384,466.500 705.268 C 446.700 707.152,425.775 708.973,420.000 709.316 C 414.225 709.658,406.125 710.964,402.000 712.217 C 394.797 714.404,394.857 714.192,403.500 706.856 C 427.376 686.592,476.728 672.960,562.500 662.936 C 577.350 661.201,591.525 659.218,594.000 658.530 C 616.039 652.402,717.269 643.825,843.000 637.433 C 893.325 634.875,945.975 631.665,960.000 630.300 C 996.827 626.715,1089.017 626.556,1120.500 630.022 M1346.188 628.813 C 1345.191 629.809,1342.603 629.916,1340.438 629.049 C 1338.044 628.092,1338.755 627.381,1342.250 627.237 C 1345.413 627.107,1347.184 627.816,1346.188 628.813 M2643.000 635.931 C 2671.875 637.330,2710.350 639.918,2728.500 641.682 C 2746.650 643.445,2785.125 646.952,2814.000 649.474 C 2842.875 651.996,2882.025 656.040,2901.000 658.460 C 2962.411 666.293,3019.681 672.000,3036.863 672.000 C 3046.094 672.000,3054.424 673.258,3055.374 674.796 C 3057.895 678.876,2971.137 675.735,2871.000 668.123 C 2796.031 662.423,2763.515 661.657,2607.000 661.899 C 2508.825 662.052,2400.150 663.768,2365.500 665.714 C 2296.942 669.563,2183.334 679.447,2157.000 683.853 C 2147.925 685.371,2126.325 687.441,2109.000 688.452 C 2080.040 690.142,2048.343 693.559,2022.000 697.832 C 1984.470 703.919,2065.767 681.667,2110.661 673.564 C 2135.393 669.100,2183.420 661.043,2227.500 653.962 C 2237.400 652.372,2273.175 649.007,2307.000 646.484 C 2340.825 643.962,2372.550 641.029,2377.500 639.967 C 2401.214 634.879,2568.746 632.332,2643.000 635.931 M2907.000 676.097 C 2940.277 678.956,2995.457 680.893,3044.807 680.933 C 3125.138 680.998,3127.280 681.157,3134.057 687.523 C 3143.467 696.363,3142.794 698.746,3131.250 697.469 C 3125.888 696.876,3062.775 694.929,2991.000 693.142 C 2919.225 691.355,2810.550 688.565,2749.500 686.942 C 2469.282 679.491,2271.217 684.561,2096.905 703.647 C 2074.577 706.092,2053.652 708.590,2050.405 709.198 C 2047.157 709.805,2034.375 711.207,2022.000 712.312 C 1985.201 715.599,1967.321 717.541,1952.250 719.886 C 1944.413 721.106,1938.000 720.956,1938.000 719.552 C 1938.000 718.148,1940.881 717.000,1944.402 717.000 C 1947.923 717.000,1955.686 715.724,1961.652 714.164 C 1992.778 706.028,2032.556 700.571,2094.000 696.008 C 2143.640 692.321,2159.553 690.771,2187.020 686.947 C 2197.757 685.452,2219.357 683.431,2235.020 682.455 C 2250.684 681.480,2276.325 679.234,2292.000 677.464 C 2343.947 671.599,2441.223 669.698,2647.500 670.517 C 2802.943 671.135,2864.710 672.463,2907.000 676.097 M1312.500 688.266 C 1384.675 694.406,1462.756 706.080,1524.000 719.889 C 1606.464 738.481,1644.274 747.726,1643.011 748.989 C 1642.238 749.762,1636.407 749.011,1630.053 747.320 C 1618.156 744.153,1506.713 721.689,1488.000 718.686 C 1482.225 717.759,1466.700 716.272,1453.500 715.382 C 1440.300 714.491,1414.743 712.404,1396.706 710.744 C 1326.780 704.305,834.893 707.914,766.500 715.367 C 759.900 716.086,744.375 717.581,732.000 718.689 C 719.625 719.797,706.125 721.414,702.000 722.282 C 690.963 724.606,384.213 725.082,385.640 722.774 C 386.995 720.581,420.991 713.423,424.965 714.493 C 426.359 714.868,434.925 714.250,444.000 713.118 C 475.686 709.167,500.227 708.149,603.000 706.523 C 659.925 705.622,712.575 704.265,720.000 703.507 C 791.631 696.193,844.039 693.324,967.500 689.958 C 1031.850 688.204,1107.450 685.583,1135.500 684.136 C 1194.473 681.091,1240.887 682.175,1312.500 688.266 M2875.500 695.529 C 3088.283 701.013,3126.032 702.522,3124.210 705.470 C 3123.157 707.174,3097.528 707.479,3058.987 706.246 C 2970.090 703.403,2621.825 703.012,2626.033 705.760 C 2627.940 707.005,2543.775 707.886,2439.000 707.718 C 2253.765 707.421,2227.047 708.040,2170.500 713.937 C 2155.650 715.486,2133.375 717.586,2121.000 718.603 C 2108.625 719.621,2093.100 720.902,2086.500 721.449 C 2079.900 721.997,2061.000 723.283,2044.500 724.306 C 1989.178 727.738,1945.711 732.535,1917.802 738.290 C 1887.050 744.630,1883.442 745.009,1890.000 741.212 C 1900.779 734.971,1960.794 723.267,1998.000 720.150 C 2020.275 718.283,2042.550 716.119,2047.500 715.341 C 2052.450 714.563,2076.750 711.963,2101.500 709.563 C 2126.250 707.164,2151.900 704.530,2158.500 703.709 C 2165.100 702.889,2185.350 701.478,2203.500 700.574 C 2260.696 697.725,2347.195 692.676,2355.000 691.731 C 2371.569 689.726,2760.420 692.562,2875.500 695.529 M2688.860 710.208 C 2680.257 710.812,2665.407 710.817,2655.860 710.220 C 2646.312 709.623,2653.350 709.129,2671.500 709.122 C 2689.650 709.115,2697.462 709.604,2688.860 710.208 M2968.351 709.993 C 3057.015 711.552,3082.426 712.855,3085.092 715.976 C 3086.966 718.171,3093.031 724.780,3098.570 730.664 C 3104.108 736.547,3108.158 741.806,3107.570 742.351 C 3106.981 742.895,3077.475 740.937,3042.000 737.999 C 2967.243 731.808,2881.833 727.423,2841.000 727.679 C 2686.108 728.649,2423.029 728.771,2421.472 727.873 C 2417.298 725.467,2058.392 731.737,2038.500 734.563 C 2026.950 736.204,2007.375 738.399,1995.000 739.441 C 1963.588 742.085,1902.850 749.827,1888.581 753.007 C 1882.026 754.468,1876.129 755.129,1875.477 754.477 C 1874.825 753.825,1878.164 752.416,1882.896 751.345 C 1887.628 750.274,1896.225 748.265,1902.000 746.880 C 1929.666 740.245,2014.409 731.724,2125.500 724.407 C 2140.350 723.429,2163.975 721.263,2178.000 719.593 C 2209.276 715.870,2320.825 711.599,2360.424 712.609 C 2376.416 713.017,2465.775 714.136,2559.000 715.096 C 2735.051 716.908,2869.785 719.309,2926.500 721.643 C 3002.577 724.775,3088.515 725.683,3064.500 723.102 C 3031.016 719.503,2921.956 713.967,2877.000 713.584 C 2856.375 713.408,2825.325 712.307,2808.000 711.136 L 2776.500 709.006 2815.759 708.503 C 2837.351 708.226,2906.018 708.897,2968.351 709.993 M1407.201 719.573 C 1427.715 721.348,1453.950 723.486,1465.500 724.324 C 1477.050 725.162,1493.925 727.196,1503.000 728.843 C 1512.075 730.490,1524.225 732.626,1530.000 733.588 C 1542.554 735.680,1647.580 757.016,1671.000 762.232 C 1680.075 764.253,1685.731 766.517,1683.569 767.264 C 1681.406 768.010,1673.981 767.210,1667.069 765.485 C 1644.940 759.963,1596.040 752.909,1549.621 748.544 C 1483.633 742.338,1311.110 739.738,1219.500 743.570 C 1176.600 745.364,1030.800 747.636,895.500 748.617 C 760.200 749.599,633.300 751.698,613.500 753.283 C 593.700 754.868,560.625 757.497,540.000 759.126 C 519.375 760.755,492.375 763.403,480.000 765.009 C 383.498 777.538,336.000 780.504,336.000 774.000 C 336.000 768.065,347.623 759.572,364.268 753.344 C 373.594 749.855,382.457 747.000,383.963 747.000 C 385.470 747.000,387.781 745.280,389.101 743.178 C 390.420 741.076,395.322 736.923,399.994 733.949 C 407.961 728.877,416.233 728.665,533.494 730.528 C 634.869 732.139,668.992 731.620,714.000 727.783 C 781.770 722.007,858.774 717.131,897.000 716.197 C 980.663 714.151,1374.684 716.759,1407.201 719.573 M3115.689 723.240 C 3120.535 728.322,3133.909 739.460,3145.410 747.990 C 3163.091 761.105,3165.273 763.650,3159.540 764.474 C 3155.811 765.010,3124.126 761.982,3089.130 757.745 C 3009.310 748.080,2868.254 741.000,2755.545 741.000 C 2707.945 741.000,2669.563 740.465,2670.250 739.811 C 2676.005 734.338,2875.937 732.991,2965.500 737.822 C 3040.906 741.889,3105.247 746.696,3111.750 748.748 C 3120.115 751.387,3117.913 746.159,3105.000 732.720 C 3098.400 725.852,3093.000 718.830,3093.000 717.116 C 3093.000 710.548,3107.255 714.396,3115.689 723.240 M1869.000 733.467 C 1869.000 735.787,1820.538 759.538,1818.980 757.980 C 1817.801 756.801,1864.450 732.000,1867.847 732.000 C 1868.481 732.000,1869.000 732.660,1869.000 733.467 M2470.980 735.980 C 2472.091 737.091,2390.088 737.690,2288.750 737.312 C 2133.684 736.732,2120.181 736.376,2203.500 735.062 C 2334.285 732.999,2468.459 733.459,2470.980 735.980 M2073.000 738.000 C 2073.000 739.650,2067.938 740.840,2061.750 740.645 C 2050.553 740.292,2050.543 740.279,2059.500 738.000 C 2072.490 734.695,2073.000 734.695,2073.000 738.000 M2652.000 746.751 C 2672.002 748.031,2640.925 748.951,2566.861 749.273 C 2502.709 749.551,2449.496 750.504,2448.611 751.389 C 2447.725 752.275,2486.713 753.071,2535.250 753.157 C 2583.788 753.244,2647.125 754.543,2676.000 756.044 C 2704.875 757.545,2764.950 760.140,2809.500 761.811 C 2937.782 766.623,3028.338 770.940,3070.500 774.253 C 3091.950 775.939,3119.625 778.105,3132.000 779.068 C 3144.375 780.031,3153.825 780.123,3153.000 779.272 C 3152.175 778.420,3141.375 776.810,3129.000 775.693 C 3116.625 774.576,3103.800 773.032,3100.500 772.261 C 3088.504 769.459,2954.197 761.952,2860.500 758.847 C 2807.700 757.096,2746.950 754.585,2725.500 753.266 C 2687.329 750.919,2687.934 750.860,2754.000 750.496 C 2848.759 749.974,2998.380 754.979,3057.000 760.633 C 3084.225 763.258,3122.000 766.192,3140.944 767.152 L 3175.388 768.898 3190.444 783.685 L 3205.500 798.473 3174.000 796.641 C 3156.675 795.634,3110.100 794.164,3070.500 793.375 C 3030.900 792.585,2953.950 790.623,2899.500 789.014 C 2845.050 787.406,2716.800 786.301,2614.500 786.560 L 2428.500 787.031 2631.000 789.217 C 2742.375 790.420,2857.800 792.849,2887.500 794.616 C 2917.200 796.382,3000.720 799.374,3073.101 801.265 C 3218.947 805.074,3209.533 803.522,3220.691 825.590 C 3223.447 831.041,3228.043 838.200,3230.904 841.500 C 3238.037 849.728,3240.673 858.003,3236.156 857.988 C 3234.145 857.981,3220.350 856.079,3205.500 853.760 C 3139.686 843.483,2996.630 832.893,2884.500 829.997 C 2812.792 828.145,2838.298 832.279,2937.000 838.506 C 3033.414 844.589,3047.322 845.653,3075.000 849.063 C 3087.375 850.587,3108.975 852.063,3123.000 852.341 C 3137.025 852.620,3162.000 854.634,3178.500 856.816 C 3195.000 858.998,3215.430 860.833,3223.900 860.892 C 3237.211 860.985,3239.535 861.898,3241.031 867.619 C 3241.983 871.259,3242.478 874.357,3242.131 874.503 C 3240.055 875.374,3126.611 870.084,3091.500 867.479 C 3022.382 862.349,2919.000 859.767,2919.000 863.171 C 2919.000 865.042,2945.447 866.989,2988.750 868.307 C 3027.113 869.474,3075.375 871.699,3096.000 873.250 C 3116.625 874.802,3159.150 876.815,3190.500 877.725 C 3221.850 878.634,3249.099 879.891,3251.054 880.519 C 3253.008 881.147,3256.209 884.653,3258.165 888.309 L 3261.723 894.957 3161.612 893.045 C 3106.550 891.992,3010.875 889.604,2949.000 887.736 C 2812.124 883.605,2363.376 885.894,2233.500 891.385 C 2127.739 895.857,2118.855 895.950,1980.872 894.030 L 1875.244 892.561 1871.617 885.785 C 1869.623 882.058,1868.555 878.448,1869.245 877.763 C 1869.935 877.077,1910.099 874.872,1958.498 872.863 C 2018.543 870.370,2143.382 869.573,2351.498 870.355 C 2519.249 870.985,2640.300 870.616,2620.500 869.535 C 2540.817 865.185,2150.536 863.369,2020.500 866.743 C 1947.900 868.626,1883.613 870.679,1877.641 871.304 L 1866.782 872.440 1865.041 855.570 C 1864.083 846.292,1863.668 838.332,1864.118 837.882 C 1864.568 837.432,1947.526 837.014,2048.468 836.954 C 2162.110 836.886,2232.000 835.760,2232.000 833.998 C 2232.000 832.230,2161.930 831.320,2046.931 831.595 C 1869.989 832.018,1861.722 831.794,1858.681 826.506 C 1856.931 823.464,1850.955 815.806,1845.401 809.488 C 1839.846 803.169,1835.937 798.000,1836.714 798.000 C 1841.986 798.000,1982.032 784.705,1996.500 782.832 C 2012.608 780.745,2011.819 780.614,1989.000 781.587 C 1948.186 783.327,1844.079 791.550,1837.287 793.571 C 1833.124 794.809,1825.789 792.135,1815.065 785.468 L 1799.057 775.517 1815.278 771.873 C 1824.200 769.869,1839.600 767.434,1849.500 766.461 C 1859.400 765.488,1880.325 762.654,1896.000 760.164 C 1947.508 751.982,2020.577 749.293,2247.000 747.249 C 2552.781 744.488,2615.432 744.411,2652.000 746.751 M1459.500 751.251 C 1556.380 752.872,1612.666 758.925,1702.035 777.331 C 1716.597 780.330,1718.631 781.469,1714.035 784.048 C 1707.888 787.497,1690.059 787.022,1674.000 782.982 C 1660.809 779.664,1601.837 772.086,1558.500 768.142 C 1540.350 766.490,1514.025 763.656,1500.000 761.844 C 1470.785 758.071,1230.000 755.524,1230.000 758.989 C 1230.000 760.247,1280.963 761.976,1343.250 762.830 C 1426.053 763.966,1473.841 766.085,1521.000 770.712 C 1556.475 774.193,1600.104 778.416,1617.953 780.096 C 1635.801 781.776,1656.726 784.383,1664.453 785.889 C 1672.179 787.396,1684.993 789.482,1692.930 790.525 C 1700.866 791.568,1706.907 793.778,1706.355 795.436 C 1705.802 797.094,1704.034 798.432,1702.425 798.411 C 1690.750 798.254,1595.429 789.096,1509.159 779.844 C 1441.329 772.569,1289.516 769.500,997.500 769.500 C 693.097 769.500,642.271 770.783,522.000 781.505 C 496.425 783.785,461.325 786.472,444.000 787.477 C 405.613 789.702,392.523 791.801,394.734 795.378 C 395.658 796.874,397.461 797.451,398.741 796.660 C 400.020 795.869,422.540 793.828,448.784 792.125 C 475.028 790.421,522.150 787.009,553.500 784.541 C 584.850 782.074,633.450 778.571,661.500 776.756 C 738.954 771.745,1108.657 769.885,1239.000 773.850 C 1392.851 778.531,1478.499 782.069,1491.000 784.258 C 1496.775 785.270,1518.375 787.364,1539.000 788.911 C 1559.625 790.458,1590.675 793.077,1608.000 794.732 C 1642.786 798.054,1680.024 800.768,1692.750 800.909 C 1698.128 800.968,1701.000 802.603,1701.000 805.606 C 1701.000 809.404,1699.857 809.599,1694.482 806.723 C 1686.254 802.319,1450.267 799.523,1447.625 803.798 C 1446.556 805.527,1485.547 806.808,1548.692 807.118 C 1605.237 807.396,1661.824 808.496,1674.442 809.562 L 1697.385 811.500 1684.942 836.362 C 1678.099 850.036,1668.450 865.648,1663.500 871.056 L 1654.500 880.889 1606.500 881.490 C 1540.628 882.314,1332.508 887.548,1288.500 889.487 C 1268.700 890.360,1211.325 891.807,1161.000 892.704 C 1110.675 893.601,1002.675 896.214,921.000 898.512 C 839.325 900.809,686.775 904.836,582.000 907.461 C 477.225 910.086,363.147 913.531,328.494 915.117 C 293.841 916.703,259.078 918.000,251.244 918.000 C 237.500 918.000,237.000 917.692,237.000 909.230 C 237.000 904.254,240.242 896.607,244.495 891.553 L 251.990 882.645 305.245 880.505 C 334.535 879.328,362.550 877.882,367.500 877.291 C 372.450 876.700,409.926 875.281,450.780 874.138 C 491.634 872.995,524.282 871.282,523.331 870.331 C 521.464 868.464,378.503 869.347,375.385 871.245 C 374.348 871.876,347.403 873.376,315.506 874.578 L 257.512 876.764 265.637 860.730 C 270.106 851.911,277.741 840.979,282.603 836.437 L 291.444 828.178 351.972 826.441 C 385.262 825.485,438.825 822.760,471.000 820.385 C 536.359 815.559,717.143 809.368,772.500 810.060 C 829.378 810.770,1075.338 806.625,1077.000 804.928 C 1080.387 801.469,589.751 807.341,513.000 811.678 C 469.275 814.149,431.475 816.936,429.000 817.871 C 424.626 819.525,293.469 824.669,291.530 823.263 C 289.842 822.040,305.974 789.756,309.901 786.497 C 312.007 784.749,336.023 782.749,364.579 781.944 C 392.585 781.154,432.375 778.408,453.000 775.842 C 563.936 762.038,610.567 759.557,798.000 757.488 C 1014.024 755.102,1333.012 749.988,1334.108 748.892 C 1334.650 748.350,1344.860 748.354,1356.796 748.901 C 1368.733 749.448,1414.950 750.506,1459.500 751.251 M1785.000 757.035 C 1785.000 757.604,1781.963 760.642,1778.250 763.785 L 1771.500 769.500 1777.215 762.750 C 1782.586 756.407,1785.000 754.634,1785.000 757.035 M2250.120 768.629 C 2208.112 769.933,2159.512 772.239,2142.120 773.754 C 2111.715 776.401,2112.286 776.459,2157.000 775.243 C 2294.573 771.503,2550.505 770.601,2626.500 773.589 C 2672.700 775.405,2754.375 777.448,2808.000 778.128 C 2875.196 778.981,2891.980 778.648,2862.000 777.059 C 2838.075 775.791,2792.175 774.577,2760.000 774.362 C 2727.825 774.146,2676.525 772.643,2646.000 771.022 C 2571.482 767.065,2344.683 765.694,2250.120 768.629 M1717.500 774.237 L 1723.500 776.620 1717.500 776.579 C 1714.200 776.557,1706.100 774.698,1699.500 772.448 L 1687.500 768.358 1699.500 770.106 C 1706.100 771.067,1714.200 772.926,1717.500 774.237 M2091.000 777.000 C 2091.000 778.650,2093.780 780.000,2097.177 780.000 C 2100.574 780.000,2102.520 778.650,2101.500 777.000 C 2100.480 775.350,2097.701 774.000,2095.323 774.000 C 2092.945 774.000,2091.000 775.350,2091.000 777.000 M1806.255 786.130 C 1819.963 793.124,1839.378 809.892,1848.341 822.479 C 1851.692 827.185,1856.872 842.840,1859.852 857.268 C 1862.832 871.696,1866.259 885.878,1867.469 888.784 C 1869.138 892.794,1868.539 893.635,1864.988 892.272 C 1859.746 890.261,1852.167 869.449,1849.230 849.000 C 1846.649 831.029,1842.873 825.614,1817.975 804.186 L 1796.846 786.000 1776.342 786.000 C 1765.064 786.000,1749.667 786.846,1742.125 787.880 C 1729.251 789.644,1728.044 790.614,1722.397 803.742 C 1719.089 811.432,1713.596 820.246,1710.191 823.327 C 1706.786 826.409,1704.000 830.245,1704.000 831.851 C 1704.000 833.458,1699.613 839.866,1694.250 846.090 C 1688.888 852.314,1682.005 861.008,1678.955 865.409 C 1675.906 869.810,1672.651 872.651,1671.724 871.724 C 1670.796 870.796,1672.179 867.666,1674.797 864.768 C 1677.414 861.871,1683.442 851.400,1688.191 841.500 C 1702.430 811.819,1716.242 789.171,1722.982 784.450 C 1727.647 781.183,1737.960 780.000,1761.787 780.000 C 1788.548 780.000,1796.346 781.075,1806.255 786.130 M2154.000 783.268 C 2064.807 786.369,2012.294 789.294,2014.063 791.063 C 2014.853 791.853,2079.400 790.488,2157.500 788.029 C 2235.600 785.571,2335.902 783.369,2380.393 783.137 C 2424.884 782.905,2461.896 782.104,2462.643 781.357 C 2464.788 779.212,2228.629 780.674,2154.000 783.268 M2933.250 782.170 C 2938.613 782.836,2947.388 782.836,2952.750 782.170 C 2958.113 781.505,2953.725 780.960,2943.000 780.960 C 2932.275 780.960,2927.888 781.505,2933.250 782.170 M2967.750 782.068 C 2970.638 782.823,2975.363 782.823,2978.250 782.068 C 2981.138 781.313,2978.775 780.696,2973.000 780.696 C 2967.225 780.696,2964.863 781.313,2967.750 782.068 M996.000 789.193 C 972.075 790.370,869.475 792.408,768.000 793.721 C 666.525 795.035,586.875 797.073,591.000 798.252 C 600.638 801.005,878.475 798.644,976.500 794.976 C 1124.054 789.454,1224.143 788.611,1330.500 791.996 C 1389.900 793.886,1461.450 795.879,1489.500 796.424 L 1540.500 797.416 1500.000 794.937 C 1477.725 793.573,1435.875 791.030,1407.000 789.286 C 1349.676 785.823,1065.778 785.759,996.000 789.193 M1810.833 807.257 C 1834.473 825.495,1840.999 835.248,1845.020 858.347 C 1849.692 885.179,1856.055 894.868,1872.178 899.699 L 1885.170 903.591 1877.835 909.237 C 1873.801 912.343,1861.725 918.243,1851.000 922.349 C 1789.199 946.011,1689.722 934.182,1660.728 899.723 L 1652.700 890.183 1667.100 881.886 C 1675.020 877.322,1687.575 865.967,1695.000 856.651 C 1702.425 847.336,1712.121 835.318,1716.546 829.944 C 1720.971 824.570,1725.491 816.590,1726.590 812.210 C 1727.689 807.830,1730.144 802.962,1732.044 801.393 C 1739.070 795.594,1757.022 792.212,1775.278 793.248 C 1792.049 794.200,1795.850 795.697,1810.833 807.257 M2649.541 799.627 C 2672.113 801.769,2725.438 804.964,2768.041 806.727 C 2865.133 810.745,2956.061 816.103,3105.000 826.582 C 3175.513 831.543,3210.695 832.038,3196.769 827.873 C 3191.966 826.437,3173.066 824.441,3154.769 823.438 C 3136.471 822.434,3099.225 819.737,3072.000 817.443 C 3006.357 811.912,2880.153 805.041,2742.000 799.475 C 2611.425 794.215,2592.841 794.246,2649.541 799.627 M2265.000 816.000 C 2265.000 817.650,2266.945 819.000,2269.323 819.000 C 2271.701 819.000,2274.480 817.650,2275.500 816.000 C 2276.520 814.350,2274.574 813.000,2271.177 813.000 C 2267.780 813.000,2265.000 814.350,2265.000 816.000 M2362.500 815.385 C 2364.374 817.256,2423.805 819.021,2520.870 820.087 C 2606.323 821.026,2677.198 822.354,2678.370 823.038 C 2679.541 823.723,2700.712 825.224,2725.415 826.375 C 2750.118 827.526,2771.287 829.059,2772.457 829.783 C 2773.628 830.506,2775.433 829.726,2776.470 828.049 C 2777.574 826.262,2774.867 824.990,2769.927 824.977 C 2765.292 824.964,2734.500 823.040,2701.500 820.702 C 2625.784 815.337,2358.249 811.140,2362.500 815.385 M1031.497 818.959 C 972.645 819.807,923.370 821.701,921.997 823.168 C 920.543 824.722,931.282 825.035,947.711 823.918 C 963.227 822.863,1038.039 822.000,1113.961 822.000 C 1189.882 822.000,1251.438 821.469,1250.750 820.820 C 1248.209 818.422,1135.345 817.464,1031.497 818.959 M1383.000 819.078 C 1324.639 820.281,1341.712 820.732,1455.000 820.980 C 1536.675 821.158,1601.475 820.867,1599.000 820.333 C 1589.722 818.330,1456.715 817.557,1383.000 819.078 M2106.000 819.136 C 2088.675 820.307,2047.163 821.430,2013.750 821.632 C 1975.495 821.864,1953.000 823.111,1953.000 825.000 C 1953.000 828.915,2008.972 828.778,2088.000 824.670 C 2121.825 822.911,2174.475 820.469,2205.000 819.241 L 2260.500 817.010 2199.000 817.008 C 2165.175 817.007,2123.325 817.964,2106.000 819.136 M502.000 824.781 C 473.675 825.727,449.823 827.175,448.997 828.000 C 448.171 828.825,515.896 829.093,599.497 828.596 C 690.043 828.058,752.652 826.541,754.350 824.846 C 757.412 821.788,592.955 821.746,502.000 824.781 M1616.250 823.987 C 1618.313 824.819,1621.688 824.819,1623.750 823.987 C 1625.813 823.155,1624.125 822.474,1620.000 822.474 C 1615.875 822.474,1614.188 823.155,1616.250 823.987 M429.750 830.068 C 432.638 830.823,437.363 830.823,440.250 830.068 C 443.138 829.313,440.775 828.696,435.000 828.696 C 429.225 828.696,426.863 829.313,429.750 830.068 M551.449 835.683 C 495.871 837.799,447.271 840.221,443.449 841.065 C 436.839 842.525,467.399 842.033,600.000 838.542 C 632.175 837.695,698.295 836.245,746.933 835.318 C 795.572 834.392,835.959 833.041,836.683 832.317 C 839.306 829.694,650.107 831.927,551.449 835.683 M1284.000 832.989 C 1154.615 837.570,1083.218 841.079,1045.500 844.711 C 1020.750 847.094,961.013 849.926,912.750 851.005 C 864.488 852.084,825.000 854.097,825.000 855.478 C 825.000 858.848,875.547 858.038,973.500 853.098 C 1056.347 848.919,1079.245 848.542,1050.000 851.837 C 1040.925 852.859,1150.950 853.784,1294.500 853.892 C 1438.050 854.000,1566.975 854.923,1581.000 855.944 C 1595.025 856.964,1617.300 856.771,1630.500 855.514 C 1673.339 851.435,1496.937 847.883,1273.874 848.334 C 1160.230 848.564,1067.755 848.263,1068.374 847.665 C 1072.643 843.547,1487.944 835.095,1628.250 836.271 C 1651.116 836.463,1668.000 835.414,1668.000 833.802 C 1668.000 831.333,1349.797 830.659,1284.000 832.989 M2325.655 833.056 C 2313.641 833.722,2304.398 835.219,2305.115 836.383 C 2305.832 837.548,2339.962 837.457,2380.959 836.181 C 2444.149 834.216,2572.823 835.529,2598.000 838.397 C 2602.125 838.867,2629.800 840.131,2659.500 841.207 C 2707.985 842.963,2745.612 844.951,2838.750 850.681 C 2856.051 851.746,2868.000 851.342,2868.000 849.694 C 2868.000 848.161,2847.413 845.977,2822.250 844.839 C 2797.088 843.702,2736.675 840.700,2688.000 838.167 C 2603.508 833.770,2371.744 830.501,2325.655 833.056 M720.000 843.417 C 666.375 844.767,613.725 847.189,603.000 848.801 C 587.331 851.154,592.341 851.424,628.500 850.172 C 653.250 849.315,736.551 847.638,813.613 846.444 C 890.675 845.251,954.687 843.313,955.863 842.137 C 958.471 839.529,851.371 840.110,720.000 843.417 M566.285 851.122 C 570.017 851.839,575.417 851.812,578.285 851.061 C 581.153 850.310,578.100 849.723,571.500 849.757 C 564.900 849.790,562.553 850.404,566.285 851.122 M1656.000 852.000 C 1656.000 853.650,1658.700 855.000,1662.000 855.000 C 1665.300 855.000,1668.000 853.650,1668.000 852.000 C 1668.000 850.350,1665.300 849.000,1662.000 849.000 C 1658.700 849.000,1656.000 850.350,1656.000 852.000 M1923.000 851.952 C 1915.575 853.079,1972.950 853.365,2050.500 852.587 C 2128.050 851.809,2192.063 850.683,2192.750 850.086 C 2195.052 848.086,1936.684 849.873,1923.000 851.952 M2234.285 851.122 C 2238.017 851.839,2243.417 851.812,2246.285 851.061 C 2249.153 850.310,2246.100 849.723,2239.500 849.757 C 2232.900 849.790,2230.553 850.404,2234.285 851.122 M2879.250 851.117 C 2882.963 851.832,2889.038 851.832,2892.750 851.117 C 2896.463 850.402,2893.425 849.817,2886.000 849.817 C 2878.575 849.817,2875.538 850.402,2879.250 851.117 M778.500 855.000 C 777.480 856.650,779.505 858.000,783.000 858.000 C 786.495 858.000,788.520 856.650,787.500 855.000 C 786.480 853.350,784.455 852.000,783.000 852.000 C 781.545 852.000,779.520 853.350,778.500 855.000 M689.250 857.240 C 666.420 857.856,654.000 859.341,654.000 861.456 C 654.000 864.850,708.684 862.848,745.500 858.105 L 763.500 855.787 744.000 856.038 C 733.275 856.177,708.638 856.718,689.250 857.240 M798.750 857.149 C 803.288 857.836,810.713 857.836,815.250 857.149 C 819.788 856.461,816.075 855.899,807.000 855.899 C 797.925 855.899,794.213 856.461,798.750 857.149 M2535.000 857.762 C 2531.818 859.986,2557.632 860.922,2623.114 860.954 C 2677.367 860.981,2736.391 862.767,2765.614 865.266 C 2793.051 867.612,2842.500 871.041,2875.500 872.885 C 2908.500 874.729,2955.075 877.569,2979.000 879.196 C 3074.554 885.695,3252.723 890.693,3248.750 886.764 C 3248.062 886.084,3201.600 883.982,3145.500 882.093 C 3089.400 880.204,3038.100 878.172,3031.500 877.576 C 3024.900 876.981,2998.575 875.595,2973.000 874.496 C 2947.425 873.396,2923.701 872.068,2920.281 871.544 C 2916.860 871.019,2896.610 869.690,2875.281 868.590 C 2853.951 867.490,2814.900 864.571,2788.500 862.101 C 2728.357 856.477,2541.416 853.277,2535.000 857.762 M1149.000 862.718 C 1098.070 867.049,1024.878 868.515,1019.689 865.308 C 1017.603 864.019,1016.853 864.334,1017.915 866.053 C 1019.079 867.936,1009.033 869.221,990.628 869.544 C 974.608 869.825,955.613 870.893,948.418 871.918 C 940.544 873.039,934.567 872.536,933.404 870.653 C 932.088 868.525,919.970 868.368,895.485 870.163 C 852.855 873.288,716.099 879.336,652.500 880.909 C 538.427 883.729,319.973 891.812,297.000 894.061 C 265.713 897.125,382.515 894.905,466.500 890.840 C 497.850 889.323,553.456 888.063,590.069 888.041 C 626.682 888.018,680.682 886.056,710.069 883.680 C 739.456 881.304,794.550 878.941,832.500 878.430 C 873.951 877.871,902.362 876.302,903.658 874.500 C 905.063 872.548,907.931 872.810,911.868 875.250 C 915.196 877.313,920.127 879.000,922.827 879.000 C 927.054 879.000,927.164 878.308,923.617 874.009 C 919.862 869.457,920.130 869.353,926.657 872.832 C 932.102 875.734,945.195 876.129,981.407 874.481 C 1024.460 872.523,1030.073 872.850,1040.250 877.908 C 1051.458 883.479,1051.013 883.507,922.500 885.460 C 851.550 886.538,756.375 888.887,711.000 890.678 C 665.625 892.470,601.500 894.680,568.500 895.589 C 471.875 898.252,424.779 900.221,423.343 901.657 C 422.604 902.396,432.688 902.986,445.750 902.969 C 476.752 902.929,740.130 894.706,777.000 892.628 C 802.670 891.181,1032.893 887.776,1094.250 887.936 C 1109.550 887.975,1119.000 886.799,1119.000 884.855 C 1119.000 882.841,1107.953 881.858,1088.250 882.121 C 1067.332 882.400,1054.289 881.151,1047.457 878.214 L 1037.415 873.896 1051.626 871.948 C 1059.442 870.877,1078.812 870.013,1094.669 870.030 C 1110.526 870.046,1143.075 868.630,1167.000 866.881 C 1190.925 865.133,1261.125 862.622,1323.000 861.300 L 1435.500 858.898 1314.000 858.958 C 1243.772 858.993,1174.144 860.580,1149.000 862.718 M1447.500 861.000 C 1448.520 862.650,1452.054 864.000,1455.354 864.000 C 1458.654 864.000,1460.520 862.650,1459.500 861.000 C 1458.480 859.350,1454.946 858.000,1451.646 858.000 C 1448.346 858.000,1446.480 859.350,1447.500 861.000 M1481.438 863.049 C 1483.603 863.916,1486.191 863.809,1487.188 862.813 C 1488.184 861.816,1486.413 861.107,1483.250 861.237 C 1479.755 861.381,1479.044 862.092,1481.438 863.049 M1493.438 863.049 C 1495.603 863.916,1498.191 863.809,1499.188 862.813 C 1500.184 861.816,1498.413 861.107,1495.250 861.237 C 1491.755 861.381,1491.044 862.092,1493.438 863.049 M2663.250 872.117 C 2666.963 872.832,2673.038 872.832,2676.750 872.117 C 2680.463 871.402,2677.425 870.817,2670.000 870.817 C 2662.575 870.817,2659.538 871.402,2663.250 872.117 M2865.000 890.899 C 2908.725 892.463,3015.375 895.299,3102.000 897.202 C 3188.625 899.105,3259.728 900.853,3260.006 901.087 C 3260.285 901.321,3261.498 905.441,3262.703 910.242 L 3264.895 918.972 3220.197 916.925 C 3155.010 913.938,2882.453 908.831,2373.000 901.050 C 2173.006 897.995,2214.853 894.313,2482.500 891.415 C 2602.950 890.110,2720.400 888.821,2743.500 888.550 C 2766.600 888.279,2821.275 889.336,2865.000 890.899 M1653.610 904.063 C 1678.901 929.695,1706.153 938.685,1765.721 941.049 C 1823.777 943.352,1859.126 935.018,1885.429 912.827 L 1897.358 902.762 1988.929 904.449 C 2039.293 905.377,2191.200 908.134,2326.500 910.574 C 2461.800 913.015,2662.950 917.001,2773.500 919.433 C 2884.050 921.864,3040.912 924.463,3122.082 925.208 L 3269.664 926.563 3270.582 916.093 L 3271.500 905.623 3287.747 921.561 C 3305.740 939.213,3314.972 952.609,3314.989 961.091 C 3314.999 965.945,3313.320 966.450,3302.250 964.924 C 3282.598 962.215,3161.755 957.490,2983.500 952.461 C 2894.400 949.948,2757.375 945.924,2679.000 943.520 C 2600.625 941.116,2460.225 937.051,2367.000 934.488 C 2116.844 927.611,1919.370 920.965,1916.732 919.334 C 1915.455 918.545,1912.376 920.805,1909.889 924.356 C 1893.585 947.632,1816.403 968.612,1759.767 965.164 C 1715.668 962.478,1650.740 936.821,1627.508 912.899 L 1617.744 902.846 1529.622 907.329 C 1481.155 909.795,1396.950 913.907,1342.500 916.467 C 1288.050 919.028,1204.350 923.091,1156.500 925.496 C 1058.431 930.425,929.315 936.730,787.500 943.516 C 734.700 946.042,653.700 950.126,607.500 952.591 C 404.065 963.446,352.801 966.257,310.500 968.880 C 285.750 970.414,252.000 971.406,235.500 971.085 C 207.995 970.549,205.433 970.001,204.698 964.500 C 203.475 955.347,214.647 939.646,225.658 935.043 C 231.071 932.781,237.353 928.695,239.617 925.965 C 243.212 921.631,251.785 921.002,307.117 921.018 C 341.978 921.029,423.825 919.713,489.000 918.094 C 554.175 916.476,695.250 913.063,802.500 910.510 C 909.750 907.957,1048.800 904.536,1111.500 902.906 C 1174.200 901.277,1291.650 898.569,1372.500 896.887 C 1453.350 895.206,1523.550 893.410,1528.500 892.895 C 1533.450 892.381,1560.725 891.744,1589.110 891.480 L 1640.721 891.000 1653.610 904.063 M400.500 903.000 C 392.510 905.033,393.119 905.330,405.927 905.645 C 414.861 905.865,419.648 904.858,418.500 903.000 C 416.436 899.660,413.627 899.660,400.500 903.000 M375.807 905.079 C 378.726 905.840,382.776 905.790,384.807 904.968 C 386.838 904.146,384.450 903.524,379.500 903.585 C 374.550 903.646,372.888 904.318,375.807 905.079 " stroke="none" fill="black" fill-rule="evenodd"/></svg>